<?xml version="1.0" standalone="no"?><!-- Generator: Gravit.io --><svg xmlns="http://www.w3.org/2000/svg" xmlns:xlink="http://www.w3.org/1999/xlink" style="isolation:isolate" viewBox="257 82 237 80"><defs><clipPath id="_clipPath_frqtYvxeLToapa6SV0mAEsXmCAADOWy9"><rect x="257" y="82" width="237" height="80" style=" "></rect></clipPath></defs><g clip-path="url(#_clipPath_frqtYvxeLToapa6SV0mAEsXmCAADOWy9)"><clipPath id="_clipPath_kt14mC898uMtC55NI2TUeEfaUZHzWXxK"><rect x="257" y="82" width="237" height="80" transform="matrix(1,0,0,1,0,0)" fill="rgb(255,255,255)"></rect></clipPath><g clip-path="url(#_clipPath_kt14mC898uMtC55NI2TUeEfaUZHzWXxK)"><g transform="matrix(1,0,0,1,350.249,100.487)"><text transform="matrix(1,0,0,1,0,38.088)" style="font-family:&quot;Abril Fatface&quot;;font-weight:400;font-size:36px;font-style:normal;fill:#000000;stroke:none;">Syonet</text></g><defs><mask id="_mask_UtfoQdBxgrc0B0KV7yyAcAVVbOlwhLtn"><path d="M 257 82 L 340.556 82 L 340.556 146 L 257 146 L 257 82 Z" style="stroke:black;fill:white;stroke-miterlimit:10;"></path></mask><mask id="_mask_q29tglVIDGI5pkKm1lsR23XLDPQp5n0m"><path d="M 257 82 L 340.556 82 L 340.556 146 L 257 146 L 257 82 Z" style="stroke:black;fill:white;stroke-miterlimit:10;"></path></mask></defs><g inkscape:label="レイヤー 1" inkscape:groupmode="layer" id="layer1" style="display:inline; transform: matrix(1, 0, 0, 1, 250, 80);"><path style="fill:none;stroke:#000000;stroke-width:0.264583px;stroke-linecap:butt;stroke-linejoin:miter;stroke-opacity:1" d="m 80.382262,19.111866 -4.496911,-0.702642 -2.529512,-0.421585 -4.496908,-0.983699 -4.075324,-1.124227 -4.63744,-1.264756 -7.869592,-0.562114 -7.02642,0.421585 -2.388984,0.983699 -1.405284,-1.82687 -3.934796,3.65374 -3.934796,8.431705 h -1.124228 l 1.826869,-8.431705 1.264756,-3.091626 3.372683,-5.1995515 1.545813,-2.6700403 -3.232153,1.5458127 -3.65374,3.5132111 -2.810568,3.653739 -2.107927,4.637438 -1.264756,5.761666 -1.264756,0.140528 -0.562114,-5.34008 0.702642,-4.918495 2.388984,-5.7616659 1.68634,-3.2321539 -4.496909,2.6700403 -2.248455,3.5132105 -1.686341,4.777967 -0.702642,2.951097 -2.107927,-2.529512 -1.405284,0.140529 -1.124227,1.826869 -0.421586,5.480609 0.562114,4.356382 2.248455,3.653737 1.405284,1.967399 -0.281057,5.621137 -0.421585,1.68634 -0.281057,0.562115 0.702642,1.686341 1.264756,1.826871 -0.421585,1.405284 -0.140529,4.496909 v 2.67004 l -0.84317,3.653739 -0.562114,2.107928 0.140529,3.513209 -0.140529,2.529512 0.140529,1.68634 1.826869,1.264756 1.82687,1.124228 1.264756,0.421587 1.264755,0.983697 h 1.686342 l 1.967396,-0.562113 2.107928,-1.405284 3.653739,-2.951096 1.405285,-0.421587 0.983699,1.264756 3.513209,0.702643 4.918496,0.562113 4.496911,0.140528 2.951096,-1.405284 1.686341,-0.140529 3.794267,2.951097 9.274876,8.572235 12.352634,0.07336 z" id="path43" inkscape:connector-curvature="0"></path><path style="fill:#000000;stroke-width:0.531131" d="m 240.51542,284.2644 c -9.53939,-8.85417 -20.65331,-18.66687 -24.69759,-21.80599 l -7.35324,-5.70751 -3.62551,0.35642 c -2.82831,0.27804 -4.81371,0.94071 -9.02922,3.0137 l -5.40373,2.65729 -8.23253,-0.32971 c -10.25145,-0.41056 -25.41489,-2.10155 -33.46126,-3.73153 -6.0785,-1.23134 -6.11847,-1.24938 -8.27542,-3.73537 l -2.16741,-2.49807 -2.96268,0.86128 c -2.36327,0.68702 -4.45432,2.07004 -10.33526,6.83574 -4.05492,3.28596 -8.94575,6.99836 -10.86851,8.24978 -4.00032,2.6036 -9.50448,4.36382 -13.64552,4.36382 -2.374969,0 -3.18693,-0.26963 -4.901751,-1.6278 -1.130399,-0.89529 -3.490876,-2.19041 -5.245505,-2.87805 -1.75463,-0.68763 -6.060376,-3.12199 -9.568325,-5.40968 l -6.37809,-4.15944 -0.01693,-2.92122 c -0.118828,-20.50379 0.05757,-27.02638 0.804391,-29.74334 3.425055,-12.46052 3.880402,-15.68391 4.276674,-30.27447 0.251215,-9.24964 0.628579,-14.89437 1.100731,-16.46506 1.057539,-3.51809 0.95238,-4.01258 -1.619912,-7.61732 -1.29243,-1.81118 -2.849467,-4.56053 -3.460081,-6.10967 -1.021574,-2.59176 -1.049415,-2.99568 -0.348723,-5.05952 1.315611,-3.87504 1.842125,-8.25625 2.213605,-18.41974 l 0.360132,-9.853 -3.171579,-4.48754 c -1.744369,-2.46815 -4.821653,-7.20696 -6.83841,-10.53068 l -3.66683,-6.04314 -1.062262,-8.03184 C 61.918329,95.478079 61.907526,94.683236 62.684765,84.773854 63.48462,74.576136 63.524214,74.373769 65.25842,71.61987 c 1.943951,-3.086974 2.977148,-3.847003 5.209956,-3.83249 1.238729,0.0081 2.212583,0.879419 5.671461,5.0746 2.296764,2.785683 4.273085,4.967727 4.391827,4.848986 0.11874,-0.118741 0.913639,-3.059586 1.766439,-6.53521 0.852801,-3.475625 2.902459,-10.143461 4.554796,-14.817415 2.533827,-7.167418 3.66998,-9.53769 7.255803,-15.137235 l 4.251555,-6.639139 6.675613,-3.983483 c 3.67158,-2.190915 6.88362,-4.066193 7.13786,-4.167284 0.25423,-0.101091 -0.71883,2.04999 -2.16236,4.78018 -1.44354,2.730189 -4.58986,9.74416 -6.99184,15.586602 -4.316182,10.498476 -4.382943,10.73125 -5.71238,19.917415 l -1.345158,9.294794 0.974754,10.212031 c 0.536115,5.616615 1.128488,10.460775 1.316384,10.764795 0.219987,0.355948 1.347962,0.407584 3.16786,0.14503 l 2.82624,-0.407744 2.47442,-11.153752 c 2.26513,-10.210358 2.80083,-11.87253 6.33362,-19.65185 3.35602,-7.390066 4.56771,-9.417378 9.29311,-15.548559 3.39839,-4.409404 8.01497,-9.505381 12.32423,-13.604013 5.80577,-5.522001 7.54985,-6.858268 11.08035,-8.489458 2.30451,-1.064749 4.29746,-1.828468 4.42877,-1.697152 0.30791,0.307901 -2.25345,4.547581 -10.28951,17.031677 -8.75899,13.607196 -10.25837,17.471508 -14.52884,37.44474 -1.78007,8.32548 -3.36957,15.568026 -3.53223,16.094552 -0.2647,0.856842 0.0219,0.940458 2.73062,0.796697 l 3.02636,-0.16062 7.5081,-16.057855 7.50811,-16.057852 6.9047,-6.377384 6.9047,-6.377384 1.06227,1.209268 c 0.58424,0.665098 1.79052,2.122563 2.68062,3.238812 l 1.61836,2.029543 4.748,-1.965437 4.74799,-1.965437 13.12652,-0.797833 c 12.52231,-0.761108 13.81839,-0.746701 28.15717,0.312997 l 15.03064,1.110829 16.20214,4.461171 c 20.15984,5.550902 27.95263,7.287553 45.40906,10.119573 l 13.80941,2.240351 0.134,113.751573 0.13401,113.75157 -22.70708,-0.0251 -22.70707,-0.0251 z" id="path49" inkscape:connector-curvature="0" transform="scale(0.26458333)"></path></g><g inkscape:groupmode="layer" id="layer3" inkscape:label="レイヤー 2" style="transform: matrix(1, 0, 0, 1, 250, 80);"><path style="fill:#ffffff;stroke:#000000;stroke-width:0.26458300000000001px;stroke-linecap:butt;stroke-linejoin:miter;stroke-opacity:1" d="m 18.860978,22.13278 -0.866065,1.154754 0.192459,2.501966 0.09623,1.828362 1.539672,3.752947 1.539671,0.192461 -0.962294,-6.062458 z" id="path56" inkscape:connector-curvature="0"></path><path style="fill:#ffffff;stroke:#000000;stroke-width:0.26458300000000001px;stroke-linecap:butt;stroke-linejoin:miter;stroke-opacity:1" d="m 40.223921,17.706224 -2.020819,5.677539 -0.577376,3.464262 3.079342,-0.866066 h 2.886885 l -1.347211,-4.907703 z" id="path58" inkscape:connector-curvature="0"></path><path style="fill:#ffffff;stroke:#000000;stroke-width:0.26458300000000001px;stroke-linecap:butt;stroke-linejoin:miter;stroke-opacity:1" d="m 33.391628,39.165397 -1.732129,1.828361 -0.673608,4.234098 0.866066,0.481147 1.539671,-2.983113 0.28869,-1.92459 z" id="path60" inkscape:connector-curvature="0"></path><path style="fill:#ffffff;stroke:#000000;stroke-width:0.26458300000000001px;stroke-linecap:butt;stroke-linejoin:miter;stroke-opacity:1" d="m 43.207035,16.262782 4.137869,-1.539672 -1.154753,1.732131 1.924589,0.192459 -0.577379,0.769836 h 1.154756 l -1.058524,0.769836 1.732129,0.192458 -0.577376,1.250984 h 1.154753 l -0.769835,1.250983 h 1.443443 l -0.673608,0.962295 h 1.250984 l -1.154755,1.443442 h 1.443442 l -0.866063,0.962295 1.154752,0.384918 v 1.347212 l -0.673605,0.288689 0.577376,1.347214 1.443443,0.577376 -1.828361,1.828358 1.539671,1.058526 -1.732129,1.443443 1.347211,1.154753 -0.962295,1.058523 1.250984,1.347214 -2.501966,3.271803 1.058524,1.34721 -1.347213,0.384919 1.058523,1.92459 -1.443439,0.962295 1.34721,2.501966 -1.539671,2.213279 0.866066,1.828358 -1.732132,2.983116 0.962295,1.539671 -2.020818,0.288687 0.288689,1.635903 h -0.673608 l -0.962295,1.92459 h -1.250982 v 0.866063 l -1.347213,-0.288687 -0.384918,1.443443 -1.443443,-0.866066 -0.384915,2.020818 -1.443443,-0.09623 -0.09623,1.058524 -2.020819,-0.288687 -0.09623,1.250982 -1.058524,-0.288689 -0.481147,1.924589 -1.347214,1.443443 -2.117047,2.11705 -2.886885,2.117048 -1.732132,0.769836 -2.117047,-0.09623 -1.250983,-1.154753 0.866065,-0.09623 1.635902,0.481148 1.6359,-0.673608 2.117048,-2.309506 2.598198,-4.619016 -1.539674,-0.09623 -0.673606,0.481147 -1.154752,1.539671 -1.92459,2.405737 -1.058524,2.020819 h -0.481147 l 0.384915,-1.732129 0.673608,-0.962295 0.192458,-2.309508 -0.866066,-1.6359 -2.117047,-1.250985 -0.866065,-0.288687 -1.828361,0.288687 -1.058524,0.769837 -0.673606,0.769835 -0.288688,0.384918 -0.577377,-0.866066 0.192459,-2.405737 0.769835,-2.309506 0.384918,-1.058526 0.288689,-0.288687 1.250983,0.866066 1.154754,-1.828361 2.213278,1.828361 1.732132,-1.539674 1.443442,1.250985 1.443439,-1.154753 2.501969,0.962295 0.673606,-1.347214 2.694426,0.288687 0.866063,-1.058524 1.92459,0.192461 1.154756,-0.673608 -1.154756,-1.92459 0.962295,-0.866063 -1.058524,-0.962295 0.192458,-1.058526 1.539674,-0.673606 -1.732132,-2.598195 0.28869,-0.769837 1.34721,-0.866066 -1.154752,-0.769834 V 43.880643 L 40.993758,43.303266 40.8013,41.763595 v -0.481147 l 1.154753,-0.09623 -0.577377,-2.117048 1.73213,-1.058524 -0.384916,-1.443442 1.924587,-1.154753 -0.09623,-1.154755 1.058524,-1.250982 -0.09623,-1.732132 1.058524,-2.020818 -0.192458,-4.619015 -1.347214,-3.368032 -1.6359,-3.945409 z" id="path62" inkscape:connector-curvature="0"></path></g></g></g></svg>
